<?xml version="1.0" encoding="UTF-8"?>
<svg version="1.1" xmlns="http://www.w3.org/2000/svg" width="63" height="20">
<path d="M0 0 C20.79 0 41.58 0 63 0 C63 6.6 63 13.2 63 20 C42.21 20 21.42 20 0 20 C0 13.4 0 6.8 0 0 Z " fill="#9B9B9B" transform="translate(0,0)"/>
<path d="M0 0 C2.0625 0.4375 2.0625 0.4375 4 1 C4 1.99 4 2.98 4 4 C3.34 4 2.68 4 2 4 C1.34 6.31 0.68 8.62 0 11 C-0.66 11 -1.32 11 -2 11 C-1.67 12.65 -1.34 14.3 -1 16 C-2.32 16.33 -3.64 16.66 -5 17 C-5.3403125 16.1028125 -5.3403125 16.1028125 -5.6875 15.1875 C-7.33811133 12.43648112 -9.1972081 11.47515363 -12 10 C-10.7308453 6.1925359 -9.42849251 5.81326707 -6 3.875 C-2.81043387 2.19447491 -2.81043387 2.19447491 0 0 Z " fill="#6D6D6D" transform="translate(14,1)"/>
<path d="M0 0 C0.66 0.33 1.32 0.66 2 1 C1.01 2.485 1.01 2.485 0 4 C0.66 4.33 1.32 4.66 2 5 C2 6.65 2 8.3 2 10 C0.68 10.33 -0.64 10.66 -2 11 C-2.3403125 10.1028125 -2.3403125 10.1028125 -2.6875 9.1875 C-4.33307014 6.4448831 -6.27035797 5.58031907 -9 4 C-9 3.34 -9 2.68 -9 2 C-8.34 2 -7.68 2 -7 2 C-7 2.66 -7 3.32 -7 4 C-5.88625 3.319375 -4.7725 2.63875 -3.625 1.9375 C-1.7265625 0.77734375 -1.7265625 0.77734375 0 0 Z " fill="#666666" transform="translate(11,7)"/>
<path d="M0 0 C0.33 0.99 0.66 1.98 1 3 C2.98 2.67 4.96 2.34 7 2 C7.33 3.65 7.66 5.3 8 7 C6.125 7.625 6.125 7.625 4 8 C3.34 7.34 2.68 6.68 2 6 C1.34 6.66 0.68 7.32 0 8 C0 5.36 0 2.72 0 0 Z " fill="#BBBBBB" transform="translate(50,6)"/>
<path d="M0 0 C0.99 0.33 1.98 0.66 3 1 C2.34 3.31 1.68 5.62 1 8 C0.01 7.67 -0.98 7.34 -2 7 C-2 6.01 -2 5.02 -2 4 C-3.98 4.66 -5.96 5.32 -8 6 C-5.63055987 3.38114512 -3.16266898 1.58133449 0 0 Z " fill="#808080" transform="translate(13,4)"/>
<path d="M0 0 C1.32 0.33 2.64 0.66 4 1 C3.67 1.33 3.34 1.66 3 2 C4.32 2.66 5.64 3.32 7 4 C7 4.66 7 5.32 7 6 C4.69 6 2.38 6 0 6 C0 4 0 2 0 0 Z " fill="#CDCDCD" transform="translate(41,8)"/>
<path d="M0 0 C0.33 0.99 0.66 1.98 1 3 C1.99 3 2.98 3 4 3 C3.67 4.32 3.34 5.64 3 7 C2.67 6.67 2.34 6.34 2 6 C1.34 6.66 0.68 7.32 0 8 C0 5.36 0 2.72 0 0 Z " fill="#DADADA" transform="translate(50,6)"/>
</svg>
